<svg width="28" height="28" viewBox="0 0 28 28" fill="none" xmlns="http://www.w3.org/2000/svg">
<path d="M25.0834 12.7166V4.78331C25.0834 3.03331 24.3367 2.33331 22.4817 2.33331H17.7684C15.9134 2.33331 15.1667 3.03331 15.1667 4.78331V12.7166C15.1667 14.4666 15.9134 15.1666 17.7684 15.1666H22.4817C24.3367 15.1666 25.0834 14.4666 25.0834 12.7166Z" fill="#F5F5F5"/>
<path d="M12.8334 15.2833V23.2166C12.8334 24.9666 12.0867 25.6666 10.2317 25.6666H5.51835C3.66335 25.6666 2.91669 24.9666 2.91669 23.2166V15.2833C2.91669 13.5333 3.66335 12.8333 5.51835 12.8333H10.2317C12.0867 12.8333 12.8334 13.5333 12.8334 15.2833Z" fill="#F5F5F5"/>
<path d="M25.0834 23.2167V19.95C25.0834 18.2 24.3367 17.5 22.4817 17.5H17.7684C15.9134 17.5 15.1667 18.2 15.1667 19.95V23.2167C15.1667 24.9667 15.9134 25.6667 17.7684 25.6667H22.4817C24.3367 25.6667 25.0834 24.9667 25.0834 23.2167Z" fill="#F5F5F5"/>
<path d="M12.8334 8.04998V4.78331C12.8334 3.03331 12.0867 2.33331 10.2317 2.33331H5.51835C3.66335 2.33331 2.91669 3.03331 2.91669 4.78331V8.04998C2.91669 9.79998 3.66335 10.5 5.51835 10.5H10.2317C12.0867 10.5 12.8334 9.79998 12.8334 8.04998Z" fill="#F5F5F5"/>
</svg>
