<svg width="28" height="28" viewBox="0 0 28 28" fill="none" xmlns="http://www.w3.org/2000/svg">
<path d="M18.8883 2.33337H9.11165C4.86498 2.33337 2.33331 4.86504 2.33331 9.11171V18.8767C2.33331 23.135 4.86498 25.6667 9.11165 25.6667H18.8766C23.1233 25.6667 25.655 23.135 25.655 18.8884V9.11171C25.6666 4.86504 23.135 2.33337 18.8883 2.33337ZM9.88165 12.81C10.22 12.4717 10.78 12.4717 11.1183 12.81L13.125 14.8167V7.59504C13.125 7.11671 13.5216 6.72004 14 6.72004C14.4783 6.72004 14.875 7.11671 14.875 7.59504V14.8167L16.8816 12.81C17.22 12.4717 17.78 12.4717 18.1183 12.81C18.4566 13.1484 18.4566 13.7084 18.1183 14.0467L14.6183 17.5467C14.5366 17.6284 14.4433 17.6867 14.3383 17.7334C14.2333 17.78 14.1166 17.8034 14 17.8034C13.8833 17.8034 13.7783 17.78 13.6616 17.7334C13.5566 17.6867 13.4633 17.6284 13.3816 17.5467L9.88165 14.0467C9.54331 13.7084 9.54331 13.16 9.88165 12.81ZM21.28 20.09C18.935 20.8717 16.4733 21.2684 14 21.2684C11.5266 21.2684 9.06498 20.8717 6.71998 20.09C6.26498 19.9384 6.01998 19.4367 6.17165 18.9817C6.32331 18.5267 6.81331 18.27 7.27998 18.4334C11.62 19.88 16.3916 19.88 20.7316 18.4334C21.1866 18.2817 21.6883 18.5267 21.84 18.9817C21.98 19.4484 21.735 19.9384 21.28 20.09Z" fill="#F5F5F5"/>
</svg>
