<svg width="28" height="28" viewBox="0 0 28 28" fill="none" xmlns="http://www.w3.org/2000/svg">
<path d="M19.8333 2.33337H8.16667C5.6 2.33337 3.5 4.43337 3.5 7.00004V21C3.5 23.5667 5.6 25.6667 8.16667 25.6667H19.8333C22.4 25.6667 24.5 23.5667 24.5 21V7.00004C24.5 4.43337 22.4 2.33337 19.8333 2.33337ZM12.67 21.1634C12.495 21.3384 12.2733 21.42 12.0517 21.42C11.83 21.42 11.6083 21.3384 11.4333 21.1634L10.675 20.405L9.95167 21.1284C9.77667 21.3034 9.555 21.385 9.33333 21.385C9.11167 21.385 8.89 21.3034 8.715 21.1284C8.37667 20.79 8.37667 20.23 8.715 19.8917L9.43833 19.1684L8.75 18.48C8.41167 18.1417 8.41167 17.5817 8.75 17.2434C9.08833 16.905 9.64833 16.905 9.98667 17.2434L10.675 17.9317L11.3983 17.2084C11.7367 16.87 12.2967 16.87 12.635 17.2084C12.9733 17.5467 12.9733 18.1067 12.635 18.445L11.9117 19.1684L12.67 19.9267C13.0083 20.265 13.0083 20.825 12.67 21.1634ZM16.905 21.5717C16.2633 21.5717 15.7383 21.0584 15.7383 20.4167V20.3934C15.7383 19.7517 16.2633 19.2267 16.905 19.2267C17.5467 19.2267 18.0717 19.7517 18.0717 20.3934C18.0717 21.035 17.5467 21.5717 16.905 21.5717ZM19.2617 19.0517C18.62 19.0517 18.0833 18.5267 18.0833 17.885C18.0833 17.2434 18.5967 16.7184 19.2383 16.7184H19.2617C19.9033 16.7184 20.4283 17.2434 20.4283 17.885C20.4283 18.5267 19.9033 19.0517 19.2617 19.0517ZM21 10.7917C21 11.9117 20.0783 12.8334 18.9583 12.8334H9.04167C7.92167 12.8334 7 11.9117 7 10.7917V7.87504C7 6.75504 7.92167 5.83337 9.04167 5.83337H18.9583C20.0783 5.83337 21 6.75504 21 7.87504V10.7917Z" fill="#F5F5F5"/>
</svg>
