<svg width="24" height="24" viewBox="0 0 24 24" fill="none" xmlns="http://www.w3.org/2000/svg">
<path fill-rule="evenodd" clip-rule="evenodd" d="M10.7807 13.0239C12.5321 14.425 14.6766 16.5583 16.1179 19.4411L13.8818 20.5591C12.6565 18.1083 10.801 16.2417 9.21902 14.9761C8.43248 14.3469 7.72576 13.876 7.21978 13.5646C6.96714 13.4092 6.76559 13.2941 6.63043 13.2196C6.56288 13.1823 6.51202 13.1552 6.47976 13.1383L6.44561 13.1206L6.44089 13.1181L6.44029 13.1178C6.44032 13.1178 6.44035 13.1179 6.44089 13.1169L6.44086 10.8833C6.44032 10.8823 6.44029 10.8823 6.44027 10.8823L6.44086 10.8821L6.44559 10.8796L6.47974 10.8619C6.51199 10.845 6.56286 10.8179 6.63041 10.7806C6.76556 10.706 6.96712 10.591 7.21975 10.4355C7.72574 10.1241 8.43246 9.65323 9.219 9.02398C10.801 7.7584 12.6565 5.89169 13.8818 3.44092L16.1179 4.55893C14.6766 7.44165 12.5321 9.57502 10.7808 10.9761C10.2847 11.373 9.81631 11.7142 9.39856 12.0001C9.8163 12.2859 10.2847 12.6271 10.7807 13.0239Z" fill="black"/>
</svg>
