<svg width="11" height="18" viewBox="0 0 11 18" fill="none" xmlns="http://www.w3.org/2000/svg">
<path fill-rule="evenodd" clip-rule="evenodd" d="M4.78098 10.0239C6.53237 11.425 8.67684 13.5583 10.1182 16.4411L7.88208 17.5591C6.65674 15.1083 4.80121 13.2417 3.21926 11.9761C2.43272 11.3469 1.726 10.876 1.22002 10.5646C0.967385 10.4092 0.765829 10.2941 0.630674 10.2196C0.563128 10.1823 0.512264 10.1552 0.480008 10.1383L0.445857 10.1206L0.441134 10.1181L0.440538 10.1178C0.440566 10.1178 0.440595 10.1179 0.441134 10.1169L0.441106 7.88333C0.440567 7.88232 0.440539 7.88233 0.440511 7.88235L0.441106 7.88205L0.445831 7.87963L0.479983 7.8619C0.512239 7.84498 0.563102 7.81788 0.63065 7.78061C0.765806 7.70604 0.967363 7.59098 1.22 7.43551C1.72598 7.12413 2.4327 6.65323 3.21925 6.02398C4.8012 4.7584 6.65673 2.89169 7.88208 0.440918L10.1182 1.55893C8.67684 4.44165 6.53238 6.57502 4.781 7.97614C4.28498 8.37296 3.81655 8.7142 3.39881 9.00006C3.81655 9.28591 4.28497 9.62713 4.78098 10.0239Z" fill="#EBEBEB"/>
</svg>
