<svg width="28" height="28" viewBox="0 0 28 28" fill="none" xmlns="http://www.w3.org/2000/svg">
<path d="M24.0567 9.85835C22.8317 4.46835 18.13 2.04169 14 2.04169C14 2.04169 14 2.04169 13.9883 2.04169C9.86999 2.04169 5.15666 4.45669 3.93166 9.84669C2.56666 15.8667 6.25332 20.965 9.58999 24.1734C10.8267 25.3634 12.4133 25.9584 14 25.9584C15.5867 25.9584 17.1733 25.3634 18.3983 24.1734C21.735 20.965 25.4217 15.8784 24.0567 9.85835ZM14 15.7034C11.97 15.7034 10.325 14.0584 10.325 12.0284C10.325 9.99835 11.97 8.35335 14 8.35335C16.03 8.35335 17.675 9.99835 17.675 12.0284C17.675 14.0584 16.03 15.7034 14 15.7034Z" fill="#F5F5F5"/>
</svg>
