<svg width="24" height="24" viewBox="0 0 24 24" fill="none" xmlns="http://www.w3.org/2000/svg">
<path fill-rule="evenodd" clip-rule="evenodd" d="M13.219 13.0239C11.4676 14.425 9.32316 16.5583 7.88184 19.4411L10.1179 20.5591C11.3433 18.1083 13.1988 16.2417 14.7807 14.9761C15.5673 14.3469 16.274 13.876 16.78 13.5646C17.0326 13.4092 17.2342 13.2941 17.3693 13.2196C17.4369 13.1823 17.4877 13.1552 17.52 13.1383L17.5541 13.1206L17.5589 13.1181L17.5595 13.1178C17.5594 13.1178 17.5594 13.1179 17.5589 13.1169L17.5589 10.8833C17.5594 10.8823 17.5595 10.8823 17.5595 10.8823L17.5589 10.8821L17.5542 10.8796L17.52 10.8619C17.4878 10.845 17.4369 10.8179 17.3694 10.7806C17.2342 10.706 17.0326 10.591 16.78 10.4355C16.274 10.1241 15.5673 9.65323 14.7808 9.02398C13.1988 7.7584 11.3433 5.89169 10.1179 3.44092L7.88184 4.55893C9.32316 7.44165 11.4676 9.57502 13.219 10.9761C13.715 11.373 14.1834 11.7142 14.6012 12.0001C14.1835 12.2859 13.715 12.6271 13.219 13.0239Z" fill="black"/>
</svg>
