<svg width="11" height="18" viewBox="0 0 11 18" fill="none" xmlns="http://www.w3.org/2000/svg">
<path fill-rule="evenodd" clip-rule="evenodd" d="M6.21902 10.0239C4.46763 11.425 2.32316 13.5583 0.881837 16.4411L3.11792 17.5591C4.34326 15.1083 6.19879 13.2417 7.78074 11.9761C8.56728 11.3469 9.274 10.876 9.77998 10.5646C10.0326 10.4092 10.2342 10.2941 10.3693 10.2196C10.4369 10.1823 10.4877 10.1552 10.52 10.1383L10.5541 10.1206L10.5589 10.1181L10.5595 10.1178C10.5594 10.1178 10.5594 10.1179 10.5589 10.1169L10.5589 7.88333C10.5594 7.88232 10.5595 7.88233 10.5595 7.88235L10.5589 7.88205L10.5542 7.87963L10.52 7.8619C10.4878 7.84498 10.4369 7.81788 10.3694 7.78061C10.2342 7.70604 10.0326 7.59098 9.78 7.43551C9.27402 7.12413 8.5673 6.65323 7.78075 6.02398C6.1988 4.7584 4.34327 2.89169 3.11792 0.440918L0.881836 1.55893C2.32316 4.44165 4.46762 6.57502 6.219 7.97614C6.71502 8.37296 7.18345 8.7142 7.60119 9.00006C7.18345 9.28591 6.71503 9.62713 6.21902 10.0239Z" fill="#EBEBEB"/>
</svg>
