<svg width="28" height="28" viewBox="0 0 28 28" fill="none" xmlns="http://www.w3.org/2000/svg">
<path d="M19.1581 0C19.6226 0.223125 19.7911 0.596458 19.7597 1.1025C19.7327 1.5276 19.7597 1.95563 19.7532 2.38219C19.748 2.90573 19.4017 3.27688 18.927 3.27396C18.4523 3.27104 18.1198 2.90938 18.1169 2.37198C18.1169 1.93448 18.1388 1.49698 18.1103 1.06531C18.0775 0.560728 18.2562 0.206354 18.7214 0H19.1581Z" fill="#3457D1"/>
<path d="M7.52499 12.7779C9.53822 10.3717 10.885 7.65478 11.4567 4.59082L21.6038 14.7408C20.1012 15.0185 18.6449 15.5047 17.2769 16.1853C15.8866 16.8809 14.5863 17.7436 13.405 18.7542L7.52499 12.7779Z" fill="#3457D1"/>
<path d="M12.1771 19.8333C12.1195 19.8953 12.0604 19.9617 11.997 20.0244C10.7564 21.2664 9.51684 22.5074 8.27823 23.7475C7.14583 24.8777 5.69333 24.877 4.55948 23.7475C3.85802 23.0475 3.15728 22.3468 2.45728 21.6453C1.36791 20.5516 1.36353 19.0801 2.45728 17.99C3.71582 16.7285 4.97607 15.4685 6.23802 14.21C6.29489 14.1531 6.35469 14.0999 6.40208 14.0554L12.1771 19.8333ZM5.55697 19.7728C5.60072 20.1374 5.78156 20.4291 6.08344 20.5603C6.23242 20.6325 6.40045 20.6554 6.56334 20.626C6.72623 20.5965 6.87555 20.516 6.98979 20.3963C7.38354 20.0176 7.76951 19.6318 8.1477 19.2391C8.22478 19.1643 8.28621 19.075 8.32844 18.9763C8.37066 18.8776 8.39282 18.7715 8.39364 18.6641C8.39445 18.5568 8.3739 18.4503 8.33318 18.351C8.29246 18.2517 8.23238 18.1614 8.15645 18.0855C7.83562 17.7603 7.32958 17.761 6.9825 18.0986C6.5975 18.4727 6.21103 18.846 5.84937 19.2413C5.71666 19.3849 5.65249 19.592 5.55697 19.7714V19.7728Z" fill="#3457D1"/>
<path d="M13.3853 0.21875C13.6251 0.21945 13.8622 0.268718 14.0824 0.363586C14.3026 0.458455 14.5013 0.596954 14.6665 0.770725C16.3679 2.47843 18.0717 4.18347 19.7779 5.88583C21.6621 7.76999 23.546 9.65465 25.4297 11.5398C26.1705 12.2828 26.153 13.3539 25.402 13.9985C25.1141 14.2482 24.7478 14.3889 24.3668 14.3961C23.9858 14.4033 23.6144 14.2765 23.3173 14.0379C23.2332 13.9694 23.1529 13.8964 23.0767 13.8192C19.5067 10.2506 15.9372 6.68135 12.3681 3.11135C11.7972 2.54042 11.6426 1.85719 11.9438 1.19802C12.2332 0.56292 12.7488 0.2625 13.3853 0.21875Z" fill="#3457D1"/>
<path d="M15.6326 24.2441C15.9359 24.5627 16.1882 24.8369 16.45 25.1016C17.1259 25.7848 17.1551 26.7903 16.5134 27.4502C15.8718 28.1101 14.8612 28.1152 14.1663 27.4502C12.9729 26.303 11.7836 25.1516 10.5984 23.9962C10.5605 23.9597 10.5255 23.9189 10.5029 23.8941L12.8618 21.5403L14.3201 23.1664C14.8232 22.6997 15.2812 22.3264 15.6734 21.8925C15.9425 21.595 15.8616 21.1699 15.5539 20.8571C15.2462 20.5443 14.9173 20.2359 14.5658 19.8946L15.8958 18.8854C16.539 19.5417 17.2907 20.0849 17.4271 21.0795C17.5321 21.8597 17.3352 22.5444 16.8029 23.1153C16.4296 23.5105 16.0198 23.8722 15.6326 24.2441Z" fill="#3457D1"/>
<path d="M21.3412 4.04249C21.4448 3.85801 21.517 3.64364 21.6577 3.49489C22.1681 2.95385 22.7033 2.4325 23.2349 1.90896C23.5885 1.56114 24.0763 1.54874 24.4088 1.86593C24.7413 2.18312 24.7537 2.69207 24.3972 3.05811C23.8707 3.59818 23.3372 4.1329 22.7967 4.66228C22.532 4.92113 22.2133 4.98968 21.8684 4.83801C21.5666 4.70166 21.3865 4.40707 21.3412 4.04249Z" fill="#3457D1"/>
<path d="M24.6414 8.18709C24.3789 8.18709 24.1157 8.19292 23.8525 8.18709C23.3734 8.17396 23.0234 7.81667 23.03 7.35511C23.0311 7.24819 23.0534 7.14255 23.0955 7.04428C23.1377 6.94601 23.1988 6.85703 23.2755 6.78249C23.3521 6.70794 23.4427 6.64929 23.5422 6.60991C23.6416 6.57053 23.7478 6.5512 23.8547 6.55303C24.3899 6.54501 24.9251 6.54647 25.4588 6.55303C25.9386 6.55959 26.301 6.91761 26.3003 7.37042C26.2996 7.82323 25.9357 8.17688 25.4567 8.18709C25.1861 8.19146 24.9142 8.18709 24.6414 8.18709Z" fill="#3457D1"/>
<path d="M5.55698 19.7714C5.6525 19.592 5.71666 19.3849 5.84864 19.2398C6.21323 18.8446 6.59677 18.4712 6.98177 18.0972C7.32885 17.7596 7.83489 17.7589 8.15573 18.0841C8.23166 18.16 8.29174 18.2502 8.33246 18.3495C8.37318 18.4489 8.39373 18.5553 8.39292 18.6627C8.39211 18.77 8.36993 18.8761 8.32771 18.9748C8.28549 19.0736 8.22405 19.1629 8.14698 19.2376C7.76927 19.6309 7.3833 20.0166 6.98906 20.3948C6.87482 20.5146 6.7255 20.595 6.56262 20.6245C6.39973 20.654 6.23169 20.631 6.08271 20.5589C5.78157 20.4305 5.60073 20.1338 5.55698 19.7714Z" fill="white"/>
</svg>
